<?xml version="1.0" standalone="no"?>
<!DOCTYPE svg PUBLIC "-//W3C//DTD SVG 20010904//EN"
 "http://www.w3.org/TR/2001/REC-SVG-20010904/DTD/svg10.dtd">
<svg version="1.0" xmlns="http://www.w3.org/2000/svg"
 width="500.000000pt" height="500.000000pt" viewBox="0 0 500.000000 500.000000"
 preserveAspectRatio="xMidYMid meet">
<metadata>
Created by potrace 1.14, written by Peter Selinger 2001-2017
</metadata>
<g transform="translate(0.000000,500.000000) scale(0.100000,-0.100000)"
fill="#000000" stroke="none">
<path d="M0 2500 l0 -2500 2500 0 2500 0 0 2500 0 2500 -2500 0 -2500 0 0
-2500z m1883 1872 c166 -45 323 -137 448 -261 123 -124 211 -273 261 -446 20
-71 23 -101 23 -260 -1 -216 -15 -279 -100 -452 l-56 -111 81 -168 c44 -92 79
-168 78 -169 -2 -1 -82 27 -179 62 l-176 65 -77 -52 c-93 -62 -175 -101 -293
-137 -80 -24 -104 -26 -258 -27 -193 -1 -260 11 -405 73 -221 95 -392 258
-500 476 -80 160 -94 227 -94 440 0 154 3 191 22 258 83 300 303 548 591 668
130 54 224 69 401 65 117 -3 174 -9 233 -24z m1349 -2045 c139 -50 235 -137
297 -267 31 -65 36 -86 39 -168 5 -116 -15 -198 -67 -280 -180 -278 -589 -326
-838 -98 -109 99 -158 220 -151 375 3 86 8 105 39 171 20 41 55 96 78 122 70
79 185 145 296 168 74 16 233 4 307 -23z m-2471 -416 c71 -34 125 -85 156
-149 39 -79 39 -183 1 -257 -73 -139 -230 -210 -384 -172 -242 60 -332 320
-173 501 67 77 147 107 269 103 62 -3 97 -10 131 -26z m1097 -11 c109 -58 164
-147 166 -265 0 -58 -5 -81 -27 -127 -88 -179 -323 -240 -495 -128 -99 64
-148 159 -140 275 5 77 39 145 101 201 72 64 132 85 242 81 80 -3 97 -7 153
-37z m2659 18 c79 -29 163 -113 188 -187 23 -69 17 -169 -14 -229 -31 -61 -94
-120 -160 -150 -81 -38 -202 -38 -282 0 -76 35 -133 88 -165 154 -81 166 16
367 206 425 53 16 168 10 227 -13z m-984 -650 c78 -37 129 -78 165 -136 53
-82 62 -135 62 -344 l0 -188 -720 0 -720 0 0 183 c1 191 7 239 41 313 43 90
151 173 253 194 22 5 226 8 451 7 l410 -2 58 -27z m-2592 -66 c42 -21 61 -40
87 -82 32 -54 32 -54 32 -192 l0 -138 -450 0 -450 0 0 99 c0 188 30 262 129
313 l53 28 273 0 273 0 53 -28z m1064 9 c51 -23 93 -65 116 -116 15 -32 19
-66 19 -172 l0 -133 -450 0 -450 0 0 113 c0 61 5 130 10 151 14 63 59 118 119
149 l55 27 270 0 c241 0 275 -2 311 -19z m2695 -2 c56 -25 86 -53 113 -104 18
-34 22 -61 25 -177 l4 -138 -451 0 -451 0 0 130 c0 146 10 182 63 239 64 68
81 71 382 71 250 0 273 -2 315 -21z"/>
</g>
</svg>
